:FULLY-SPECIFIED
:FORCE-ALL-JOINTS-BE-3DOF
:DEGREES
68
root 5.92009 16.7576 -28.0901 11.0888 2.97436 -3.93969
lfemur -35.679 15.5973 -17.7364
ltibia 52.692 -0 0
lfoot -20.6465 -11.0696 0.12473
ltoes 31.8613 -0 0
rfemur -16.8715 -0.564464 22.0943
rtibia 29.8568 -0 0
rfoot -27.1789 -18.3038 -0.0284726
rtoes -9.14707 0 0
lowerback -3.59627 2.54584 3.41546
upperback -1.42147 3.28137 -0.210327
thorax 0.753179 1.63583 -1.98411
lowerneck -10.0399 -2.49373 2.17171
upperneck -5.63325 -3.47256 2.09185
head -0.0988523 -1.75261 0.188679
lclavicle 3.34704e-14 1.61016e-14 0
lhumerus -40.4811 -12.2231 93.8386
lradius 44.0687 -0 0
lwrist 7.77147 0 0
lhand -12.1276 2.05231 -0.00672828
lfingers 7.12502 -0 0
lthumb 13.9347 31.575 -0.00324426
rclavicle 3.34704e-14 1.61016e-14 0
rhumerus -39.1647 2.10408 -92.0353
rradius 42.4725 -0 0
rwrist 7.55046 0 0
rhand -24.9893 -22.1496 -0.0103723
rfingers 7.12502 -0 0
rthumb 1.52203 -52.1269 -0.0103157
69
root 5.93122 16.7557 -28.0675 11.1723 3.01911 -4.08015
lfemur -36.1928 15.7478 -17.4744
ltibia 52.6401 -0 0
lfoot -20.3975 -10.1289 0.144112
ltoes 31.11 -0 0
rfemur -16.644 -0.491878 22.2564
rtibia 29.4618 -0 0
rfoot -27.2815 -18.5812 -0.0474804
rtoes -9.2105 0 0
lowerback -3.60159 2.62626 3.42962
upperback -1.45628 3.3881 -0.1846
thorax 0.724838 1.68857 -1.96106
lowerneck -10.0836 -2.54558 2.24222
upperneck -5.67731 -3.54834 2.06189
head -0.108001 -1.79218 0.166163
lclavicle 3.34704e-14 1.61016e-14 0
lhumerus -40.5559 -11.9822 93.665
lradius 44.1009 -0 0
lwrist 7.81365 0 0
lhand -12.3514 1.99019 -0.0113333
lfingers 7.12502 -0 0
lthumb 13.7195 31.5341 -0.00548793
rclavicle 3.34704e-14 1.61016e-14 0
rhumerus -38.9691 2.32857 -92.0391
rradius 42.4911 -0 0
rwrist 7.64473 0 0
rhand -25.0232 -22.2234 -0.0174411
rfingers 7.12502 -0 0
rthumb 1.48929 -52.2027 -0.0173341
70
root 5.94324 16.7543 -28.0427 11.263 3.04952 -4.22291
lfemur -36.6859 15.8484 -17.1912
ltibia 52.4893 -0 0
lfoot -20.1956 -9.02391 0.153268
ltoes 30.3037 -0 0
rfemur -16.3937 -0.389522 22.4213
rtibia 29.0265 -0 0
rfoot -27.3987 -18.8848 -0.0691351
rtoes -9.20118 0 0
lowerback -3.61994 2.7123 3.42948
upperback -1.49614 3.50236 -0.157899
thorax 0.698201 1.74508 -1.92827
lowerneck -10.1297 -2.59768 2.32438
upperneck -5.71454 -3.62605 2.02678
head -0.114948 -1.83279 0.140098
lclavicle 3.34704e-14 1.61016e-14 0
lhumerus -40.6434 -11.7252 93.4833
lradius 44.1231 -0 0
lwrist 7.85673 0 0
lhand -12.5961 1.92699 -0.0166501
lfingers 7.12502 -0 0
lthumb 13.4842 31.4941 -0.00809341
rclavicle 3.34704e-14 1.61016e-14 0
rhumerus -38.7577 2.54314 -92.0386
rradius 42.4958 -0 0
rwrist 7.76035 0 0
rhand -25.0682 -22.2998 -0.0253908
rfingers 7.12502 -0 0
rthumb 1.44589 -52.2815 -0.0252252
71
root 5.95638 16.7533 -28.0159 11.3566 3.07032 -4.36644
lfemur -37.1529 15.8972 -16.8879
ltibia 52.2532 -0 0
lfoot -20.0349 -7.79013 0.15359
ltoes 29.4515 -0 0
rfemur -16.1291 -0.269693 22.5839
rtibia 28.5723 -0 0
rfoot -27.522 -19.1973 -0.0920075
rtoes -9.14009 0 0
lowerback -3.64815 2.80214 3.41699
upperback -1.54004 3.62178 -0.129915
thorax 0.672476 1.80419 -1.88675
lowerneck -10.1773 -2.65035 2.41547
upperneck -5.74401 -3.70582 1.98741
head -0.119497 -1.87448 0.111164
lclavicle 3.34704e-14 1.61016e-14 0
lhumerus -40.7432 -11.4554 93.2965
lradius 44.1378 -0 0
lwrist 7.90282 0 0
lhand -12.8484 1.86523 -0.0223308
lfingers 7.12502 -0 0
lthumb 13.2417 31.4563 -0.0108889
rclavicle 3.34704e-14 1.61016e-14 0
rhumerus -38.5368 2.74536 -92.0283
rradius 42.4926 -0 0
rwrist 7.88798 0 0
rhand -25.1177 -22.3733 -0.0336392
rfingers 7.12502 -0 0
rthumb 1.39814 -52.3573 -0.0334118
72
root 5.97088 16.7524 -27.9871 11.4489 3.0862 -4.5092
lfemur -37.5884 15.8921 -16.5659
ltibia 51.9453 -0 0
lfoot -19.9097 -6.46293 0.14673
ltoes 28.5626 -0 0
rfemur -15.8585 -0.144594 22.7388
rtibia 28.1208 -0 0
rfoot -27.6426 -19.501 -0.114507
rtoes -9.04821 0 0
lowerback -3.68301 2.89394 3.39412
upperback -1.58696 3.74401 -0.100332
thorax 0.64687 1.86469 -1.8375
lowerneck -10.2253 -2.70391 2.51274
upperneck -5.76478 -3.78783 1.94465
head -0.121452 -1.91725 0.0800368
lclavicle 3.34704e-14 1.61016e-14 0
lhumerus -40.8549 -11.1759 93.1074
lradius 44.1478 -0 0
lwrist 7.95401 0 0
lhand -13.0947 1.80744 -0.027976
lfingers 7.12502 -0 0
lthumb 13.0048 31.4217 -0.0136754
rclavicle 3.34704e-14 1.61016e-14 0
rhumerus -38.3128 2.93273 -92.0024
rradius 42.4872 -0 0
rwrist 8.01827 0 0
rhand -25.1652 -22.4382 -0.0415778
rfingers 7.12502 -0 0
rthumb 1.35233 -52.4245 -0.0412902
73
root 5.98697 16.7517 -27.9565 11.5356 3.10184 -4.64964
lfemur -37.9873 15.8307 -16.2264
ltibia 51.579 -0 0
lfoot -19.8139 -5.07767 0.13443
ltoes 27.6461 -0 0
rfemur -15.5902 -0.0263292 22.8809
rtibia 27.6935 -0 0
rfoot -27.752 -19.7786 -0.13488
rtoes -8.94653 0 0
lowerback -3.72135 2.98589 3.36283
upperback -1.63587 3.86669 -0.0688264
thorax 0.620583 1.9254 -1.78152
lowerneck -10.2727 -2.75869 2.61348
upperneck -5.77594 -3.87221 1.89938
head -0.120617 -1.96112 0.0473941
lclavicle 3.34704e-14 1.61016e-14 0
lhumerus -40.978 -10.89 92.9189
lradius 44.1557 -0 0
lwrist 8.0124 0 0
lhand -13.3217 1.75613 -0.0331386
lfingers 7.12502 -0 0
lthumb 12.7865 31.3914 -0.0162291
rclavicle 3.34704e-14 1.61016e-14 0
rhumerus -38.0921 3.10271 -91.9555
rradius 42.4853 -0 0
rwrist 8.14189 0 0
rhand -25.2042 -22.4889 -0.0485742
rfingers 7.12502 -0 0
rthumb 1.31476 -52.4771 -0.0482333
74
root 6.00488 16.7509 -27.9243 11.6126 3.12188 -4.78621
lfemur -38.3444 15.7108 -15.871
ltibia 51.1679 -0 0
lfoot -19.7417 -3.66969 0.118377
ltoes 26.7112 -0 0
rfemur -15.333 0.0730892 23.0044
rtibia 27.3122 -0 0
rfoot -27.8415 -20.0124 -0.151234
rtoes -8.85604 0 0
lowerback -3.75994 3.07616 3.3251
upperback -1.68577 3.98745 -0.035068
thorax 0.592815 1.98512 -1.71983
lowerneck -10.3185 -2.81503 2.71495
upperneck -5.77655 -3.9591 1.85248
head -0.116798 -2.00611 0.0139122
lclavicle 3.34704e-14 1.61016e-14 0
lhumerus -41.1119 -10.6008 92.734
lradius 44.1642 -0 0
lwrist 8.0801 0 0
lhand -13.5159 1.71381 -0.037332
lfingers 7.12502 -0 0
lthumb 12.5997 31.3666 -0.0183075
rclavicle 3.34704e-14 1.61016e-14 0
rhumerus -37.8811 3.25273 -91.8822
rradius 42.4929 -0 0
rwrist 8.2495 0 0
rhand -25.2281 -22.5199 -0.0539818
rfingers 7.12502 -0 0
rthumb 1.2917 -52.5095 -0.0535993
